<?xml version="1.0" standalone="no"?>
<!DOCTYPE svg PUBLIC "-//W3C//DTD SVG 20010904//EN"
 "http://www.w3.org/TR/2001/REC-SVG-20010904/DTD/svg10.dtd">
<svg version="1.0" xmlns="http://www.w3.org/2000/svg"
 width="256.000000pt" height="256.000000pt" viewBox="0 0 256.000000 256.000000"
 preserveAspectRatio="xMidYMid meet">

<g transform="translate(0.000000,256.000000) scale(0.100000,-0.100000)"
fill="#000000" stroke="none">
<path d="M520 1576 l0 -236 60 0 60 0 0 58 0 58 76 11 c80 11 112 28 148 77
30 39 30 153 0 192 -46 63 -64 69 -210 72 l-134 4 0 -236z m222 117 c23 -20
24 -85 2 -107 -9 -10 -33 -16 -60 -16 l-44 0 0 70 0 70 42 0 c24 0 49 -7 60
-17z"/>
<path d="M940 1575 l0 -235 170 0 170 0 0 55 0 55 -110 0 -110 0 0 180 0 180
-60 0 -60 0 0 -235z"/>
<path d="M1501 1788 c-7 -18 -154 -377 -178 -435 -4 -10 12 -13 61 -13 l65 0
12 40 12 40 88 0 88 0 12 -40 12 -40 64 0 c34 0 63 3 63 8 0 4 -42 108 -93
232 l-92 225 -53 3 c-47 3 -53 1 -61 -20z m84 -190 c10 -29 20 -59 23 -65 3
-9 -11 -13 -48 -13 -37 0 -50 3 -47 13 3 6 14 36 23 65 10 28 20 52 24 52 3 0
14 -24 25 -52z"/>
<path d="M1713 1803 c2 -5 41 -71 86 -149 l81 -140 0 -87 0 -87 60 0 60 0 0
84 0 85 80 135 c44 75 83 143 86 151 5 12 -5 15 -60 15 l-66 0 -45 -90 c-25
-49 -47 -90 -49 -90 -3 0 -26 41 -53 90 l-48 90 -68 0 c-37 0 -66 -3 -64 -7z"/>
<path d="M370 1175 l0 -55 70 0 70 0 0 -180 0 -180 60 0 60 0 2 178 3 177 73
3 72 3 0 54 0 55 -205 0 -205 0 0 -55z"/>
<path d="M842 1058 c3 -167 4 -175 30 -220 78 -131 314 -115 367 25 6 16 11
102 11 198 l0 169 -60 0 -60 0 0 -153 c0 -124 -3 -157 -16 -175 -24 -35 -59
-44 -99 -28 -45 19 -55 58 -55 224 l0 132 -61 0 -61 0 4 -172z"/>
<path d="M1344 1217 c-2 -7 -3 -111 -2 -232 l3 -220 57 -3 57 -3 3 141 3 141
84 -141 83 -140 64 0 64 0 0 235 0 235 -60 0 -59 0 -3 -137 -3 -136 -83 136
-84 137 -59 0 c-39 0 -61 -4 -65 -13z"/>
<path d="M1850 995 l0 -235 170 0 170 0 0 50 0 50 -110 0 -110 0 0 45 0 45 95
0 95 0 0 50 0 50 -95 0 -95 0 0 40 0 39 108 3 107 3 0 45 0 45 -167 3 -168 2
0 -235z"/>
</g>
</svg>
