<?xml version="1.0" standalone="no"?>
<!DOCTYPE svg PUBLIC "-//W3C//DTD SVG 20010904//EN"
 "http://www.w3.org/TR/2001/REC-SVG-20010904/DTD/svg10.dtd">
<svg version="1.0" xmlns="http://www.w3.org/2000/svg"
 width="2298.000000pt" height="302.000000pt" viewBox="0 0 2298.000000 302.000000"
 preserveAspectRatio="xMidYMid meet">

<g transform="translate(0.000000,302.000000) scale(0.100000,-0.100000)"
fill="#000000" stroke="none">
<path d="M7538 2259 c-17 -18 -18 -55 -18 -484 0 -256 4 -465 9 -465 4 0 11
-41 14 -92 3 -50 10 -94 15 -97 5 -3 13 -25 17 -48 4 -24 11 -43 16 -43 5 0 9
-7 9 -15 0 -8 4 -15 10 -15 5 0 12 -11 16 -25 3 -14 10 -25 14 -25 5 0 12 -10
15 -22 8 -22 74 -88 90 -88 3 0 16 -11 28 -24 13 -14 35 -28 50 -31 15 -4 27
-11 27 -16 0 -5 18 -12 40 -15 22 -4 40 -10 40 -15 0 -5 11 -9 24 -9 13 0 26
-6 29 -12 6 -19 438 -19 445 0 2 6 15 12 28 12 13 0 24 4 24 10 0 5 16 12 35
16 19 3 35 10 35 14 0 5 10 12 22 16 12 3 28 13 36 20 7 8 20 14 28 14 8 0 14
4 14 9 0 10 42 53 84 86 14 11 28 35 32 53 3 17 10 32 14 32 4 0 11 12 15 27
3 15 11 31 17 34 5 3 12 25 15 48 3 22 10 41 14 41 5 0 9 18 9 40 0 22 5 40
10 40 7 0 10 178 10 515 0 508 0 515 -20 515 -11 0 -20 5 -20 10 0 6 -60 10
-160 10 -100 0 -160 -4 -160 -10 0 -5 -7 -10 -15 -10 -13 0 -15 -57 -15 -450
0 -293 -3 -450 -10 -450 -5 0 -10 -18 -10 -40 0 -22 -4 -40 -9 -40 -5 0 -11
-18 -15 -40 -3 -22 -11 -40 -16 -40 -6 0 -10 -6 -10 -14 0 -22 -45 -63 -78
-71 -18 -3 -32 -11 -32 -16 0 -5 -9 -9 -20 -9 -11 0 -20 -4 -20 -10 0 -6 -28
-10 -65 -10 -37 0 -65 4 -65 10 0 6 -11 10 -25 10 -14 0 -25 5 -25 10 0 6 -7
10 -15 10 -9 0 -18 7 -21 15 -4 8 -12 15 -20 15 -8 0 -14 6 -14 14 0 8 -7 16
-15 20 -8 3 -15 12 -15 21 0 8 -4 15 -10 15 -5 0 -10 9 -10 19 0 11 -6 21 -12
23 -10 4 -14 114 -16 497 -3 473 -3 492 -22 511 -18 18 -34 20 -187 19 -152
-1 -170 -2 -185 -20z"/>
<path d="M486 2234 c-3 -9 -6 -357 -6 -775 l0 -759 179 0 c99 0 186 3 195 6
14 5 16 33 16 204 l0 197 191 5 c109 4 194 10 198 16 3 5 30 13 59 17 28 4 52
11 52 15 0 5 13 11 29 15 16 3 32 13 35 21 3 8 14 14 25 14 11 0 22 9 26 20 3
11 17 23 31 26 13 3 24 12 24 20 0 8 9 22 20 31 11 10 20 25 20 35 0 9 9 19
20 23 13 4 22 19 26 43 4 20 11 40 16 43 4 3 11 35 15 72 3 37 10 67 14 67 5
0 9 36 9 80 0 44 -4 80 -9 80 -4 0 -11 32 -15 72 -4 40 -11 75 -15 78 -5 3
-13 18 -16 33 -4 15 -11 27 -16 27 -5 0 -9 9 -9 20 0 11 -4 20 -10 20 -5 0
-10 5 -10 11 0 7 -15 27 -33 45 -17 18 -41 44 -53 57 -11 14 -35 28 -52 32
-18 3 -32 10 -32 15 0 5 -13 11 -30 15 -16 4 -30 10 -30 15 0 4 -27 11 -60 15
-33 4 -60 11 -60 16 0 5 -34 9 -75 9 -43 0 -75 4 -75 10 0 6 -105 10 -294 10
-259 0 -295 -2 -300 -16z m554 -323 c0 -4 29 -11 65 -14 57 -6 68 -10 100 -42
19 -20 35 -43 35 -50 0 -7 6 -15 13 -18 9 -3 12 -36 12 -121 0 -101 -2 -119
-17 -127 -10 -6 -18 -17 -18 -24 0 -8 -9 -15 -19 -15 -11 0 -23 -9 -26 -20 -4
-14 -19 -22 -46 -26 -21 -4 -39 -10 -39 -15 0 -5 -52 -9 -115 -9 l-115 0 0
245 0 245 85 0 c47 0 85 -4 85 -9z"/>
<path d="M1853 2225 l-23 -24 0 -745 c0 -669 2 -744 16 -750 9 -3 258 -6 555
-6 l539 0 0 180 0 180 -350 0 -350 0 0 573 c0 546 -1 575 -19 595 -17 21 -27
22 -182 21 -160 0 -165 -1 -186 -24z"/>
<path d="M3698 2228 c-10 -12 -18 -30 -18 -40 0 -10 -4 -18 -10 -18 -5 0 -13
-18 -16 -40 -4 -22 -10 -40 -15 -40 -5 0 -12 -18 -15 -40 -4 -22 -10 -40 -15
-40 -5 0 -9 -7 -9 -15 0 -8 -4 -15 -9 -15 -5 0 -11 -18 -15 -40 -3 -22 -11
-40 -16 -40 -5 0 -13 -18 -16 -40 -4 -22 -10 -40 -15 -40 -4 0 -11 -16 -15
-35 -3 -19 -10 -35 -14 -35 -5 0 -11 -18 -15 -40 -4 -22 -11 -40 -16 -40 -5 0
-9 -7 -9 -15 0 -8 -4 -15 -10 -15 -5 0 -13 -18 -16 -40 -4 -22 -10 -40 -15
-40 -5 0 -12 -18 -15 -40 -4 -22 -10 -40 -15 -40 -5 0 -12 -18 -15 -40 -4 -22
-10 -40 -15 -40 -5 0 -9 -7 -9 -15 0 -8 -4 -15 -9 -15 -5 0 -11 -18 -15 -40
-3 -22 -11 -40 -16 -40 -5 0 -13 -18 -16 -40 -4 -22 -10 -40 -15 -40 -4 0 -11
-16 -15 -35 -3 -19 -10 -35 -15 -35 -5 0 -12 -18 -15 -40 -4 -22 -10 -40 -15
-40 -5 0 -9 -7 -9 -15 0 -8 -4 -15 -9 -15 -5 0 -11 -18 -15 -40 -3 -22 -11
-40 -16 -40 -5 0 -13 -18 -16 -40 -4 -22 -10 -40 -15 -40 -5 0 -12 -18 -15
-40 -4 -22 -10 -40 -15 -40 -5 0 -9 -7 -9 -15 0 -8 -4 -15 -10 -15 -5 0 -10
-13 -10 -30 l0 -30 205 0 205 0 0 25 c0 14 4 25 10 25 5 0 12 16 16 35 3 19
10 35 14 35 5 0 11 23 15 50 4 28 10 50 15 50 4 0 10 9 13 20 5 19 13 20 279
20 150 0 278 -4 284 -8 6 -4 14 -24 18 -44 4 -21 11 -38 15 -38 5 0 12 -20 15
-45 4 -25 11 -45 17 -45 5 0 9 -11 9 -25 0 -14 5 -25 10 -25 6 0 10 -7 10 -15
0 -13 30 -15 210 -15 180 0 210 2 210 15 0 8 -4 15 -9 15 -5 0 -11 18 -15 40
-3 22 -11 40 -16 40 -6 0 -10 7 -10 15 0 8 -4 15 -9 15 -5 0 -11 18 -15 40 -3
22 -10 40 -15 40 -5 0 -12 18 -16 40 -4 22 -10 40 -15 40 -4 0 -11 16 -14 35
-4 19 -11 35 -16 35 -4 0 -11 18 -15 40 -4 22 -11 40 -16 40 -5 0 -9 7 -9 15
0 8 -4 15 -9 15 -5 0 -11 18 -15 40 -3 22 -10 40 -15 40 -5 0 -11 18 -15 40
-3 22 -10 40 -15 40 -5 0 -11 18 -15 40 -3 22 -11 40 -16 40 -6 0 -10 7 -10
15 0 8 -4 15 -9 15 -5 0 -11 18 -15 40 -3 22 -10 40 -15 40 -5 0 -12 18 -16
40 -4 22 -10 40 -15 40 -4 0 -11 16 -14 35 -4 19 -11 35 -15 35 -5 0 -11 18
-15 40 -3 22 -11 40 -16 40 -6 0 -10 7 -10 15 0 8 -4 15 -9 15 -5 0 -11 18
-15 40 -3 22 -10 40 -15 40 -5 0 -11 18 -15 40 -3 22 -10 40 -15 40 -5 0 -11
18 -15 40 -3 22 -11 40 -16 40 -6 0 -10 9 -10 20 0 11 -4 20 -9 20 -5 0 -12
16 -15 35 -4 19 -11 35 -15 35 -5 0 -12 16 -15 35 -4 19 -11 35 -16 35 -5 0
-12 9 -15 20 -6 19 -15 20 -153 20 -139 0 -148 -1 -164 -22z m177 -528 c4 -27
11 -50 15 -50 5 0 11 -18 15 -40 4 -22 11 -40 15 -40 5 0 12 -20 16 -45 3 -25
10 -45 15 -45 5 0 9 -11 9 -25 0 -14 4 -25 9 -25 5 0 12 -15 15 -34 4 -19 10
-36 15 -38 4 -2 11 -20 15 -40 l7 -38 -166 0 c-158 0 -165 1 -165 20 0 11 5
20 10 20 6 0 10 11 10 25 0 14 4 25 10 25 5 0 13 18 16 40 4 22 10 40 14 40 4
0 11 20 14 45 4 25 11 45 16 45 4 0 11 23 15 50 4 28 11 50 15 50 5 0 12 16
16 35 3 19 10 35 15 35 5 0 9 9 9 20 0 40 18 18 25 -30z"/>
<path d="M4363 2235 c-15 -16 -17 -55 -4 -55 5 0 12 -13 16 -29 3 -16 13 -32
21 -35 8 -3 14 -15 14 -26 0 -11 5 -20 10 -20 6 0 10 -7 10 -15 0 -9 7 -18 15
-21 8 -4 15 -12 15 -20 0 -8 4 -14 9 -14 5 0 12 -15 15 -34 4 -19 13 -37 21
-40 8 -3 15 -12 15 -21 0 -8 4 -15 9 -15 5 0 12 -11 15 -25 4 -14 10 -25 15
-25 5 0 12 -13 16 -30 4 -16 11 -30 16 -30 5 0 9 -7 9 -15 0 -8 4 -15 10 -15
5 0 12 -11 16 -25 3 -14 10 -25 14 -25 4 0 11 -11 14 -25 4 -14 10 -25 15 -25
5 0 12 -13 16 -30 4 -16 11 -30 16 -30 5 0 9 -7 9 -15 0 -8 4 -15 10 -15 5 0
12 -11 16 -25 3 -14 10 -25 14 -25 4 0 11 -11 14 -25 4 -14 10 -25 15 -25 5 0
12 -13 16 -30 4 -16 11 -30 16 -30 5 0 9 -7 9 -15 0 -9 7 -18 15 -21 8 -4 15
-15 15 -25 0 -10 5 -19 10 -19 6 0 10 -7 10 -15 0 -9 7 -18 15 -21 13 -5 15
-47 15 -295 l0 -289 195 0 195 0 0 290 c0 247 2 291 15 296 8 3 17 21 21 40 4
20 13 36 24 39 10 3 22 19 25 35 4 17 11 30 16 30 5 0 9 6 9 14 0 8 6 21 14
28 7 8 17 25 21 38 4 14 16 32 25 40 9 8 21 26 25 40 4 13 14 30 21 38 8 7 14
20 14 28 0 8 4 14 9 14 5 0 12 14 16 30 4 17 11 30 16 30 5 0 11 11 15 25 3
14 10 25 15 25 5 0 9 6 9 14 0 8 7 16 15 20 8 3 15 15 15 26 0 11 5 20 10 20
6 0 10 7 10 15 0 9 6 18 14 21 8 3 18 19 21 35 4 16 11 29 16 29 5 0 9 9 9 19
0 10 7 21 15 25 8 3 15 12 15 21 0 8 4 15 9 15 5 0 12 11 15 25 4 14 10 25 15
25 5 0 12 14 16 30 4 17 11 30 16 30 5 0 11 11 15 25 3 14 10 25 15 25 14 0
11 20 -5 36 -12 11 -54 14 -207 14 -184 0 -192 -1 -210 -22 -11 -11 -19 -27
-19 -35 0 -7 -4 -13 -9 -13 -5 0 -12 -13 -16 -30 -4 -16 -11 -30 -16 -30 -5 0
-9 -7 -9 -15 0 -8 -4 -15 -9 -15 -5 0 -12 -13 -16 -30 -4 -16 -11 -30 -15 -30
-5 0 -12 -16 -16 -35 -3 -19 -10 -35 -14 -35 -5 0 -11 -13 -15 -30 -4 -16 -10
-30 -15 -30 -5 0 -11 -13 -15 -30 -4 -16 -11 -30 -16 -30 -5 0 -9 -7 -9 -15 0
-8 -4 -15 -9 -15 -5 0 -12 -13 -16 -30 -4 -16 -10 -30 -15 -30 -4 0 -11 -15
-14 -34 -4 -19 -13 -37 -21 -40 -8 -3 -15 -12 -15 -21 0 -8 -9 -15 -20 -15
-11 0 -20 7 -20 15 0 9 -7 18 -15 21 -8 3 -17 21 -21 40 -3 19 -10 34 -14 34
-5 0 -11 14 -15 30 -4 17 -10 30 -15 30 -5 0 -11 14 -15 30 -4 17 -11 30 -16
30 -5 0 -9 7 -9 15 0 8 -4 15 -9 15 -5 0 -12 14 -16 30 -4 17 -10 30 -15 30
-4 0 -11 16 -14 35 -4 19 -11 35 -16 35 -4 0 -11 14 -15 30 -4 17 -11 30 -16
30 -5 0 -9 7 -9 15 0 8 -4 15 -10 15 -5 0 -12 11 -16 25 -3 14 -10 25 -14 25
-5 0 -11 14 -15 30 -4 17 -13 30 -21 30 -8 0 -14 5 -14 10 0 6 -71 10 -192 10
-154 -1 -196 -4 -205 -15z"/>
<path d="M5998 2228 c-15 -19 -18 -44 -18 -174 0 -84 3 -159 6 -168 5 -14 36
-16 240 -16 l234 0 0 -585 0 -585 195 0 195 0 0 585 0 585 234 0 c204 0 235 2
240 16 3 9 6 84 6 168 0 135 -2 155 -19 174 l-18 22 -639 0 -639 0 -17 -22z"/>
<path d="M9173 2235 c-10 -11 -13 -180 -13 -775 l0 -760 174 0 c96 0 181 3
190 6 14 5 16 56 17 463 0 251 3 449 6 441 4 -8 12 -21 20 -28 7 -7 13 -20 13
-28 0 -8 5 -14 10 -14 6 0 10 -6 10 -14 0 -8 7 -16 15 -20 8 -3 15 -15 15 -26
0 -11 5 -20 10 -20 6 0 10 -7 10 -15 0 -9 6 -18 14 -21 8 -3 17 -17 21 -32 3
-14 14 -33 24 -41 10 -9 22 -27 26 -41 4 -13 14 -30 21 -38 8 -7 14 -20 14
-28 0 -8 4 -14 9 -14 5 0 12 -11 15 -25 4 -14 10 -25 15 -25 5 0 12 -13 16
-30 3 -16 15 -32 25 -35 11 -3 20 -19 24 -39 4 -19 13 -37 21 -40 8 -3 15 -12
15 -21 0 -8 5 -15 10 -15 6 0 10 -9 10 -20 0 -11 7 -23 15 -26 8 -4 15 -12 15
-20 0 -8 4 -14 9 -14 5 0 12 -11 15 -25 4 -14 10 -25 15 -25 5 0 12 -14 16
-30 4 -16 11 -30 16 -30 5 0 11 -11 15 -25 3 -14 10 -25 15 -25 5 0 9 -6 9
-14 0 -8 7 -22 16 -30 13 -13 46 -16 204 -16 104 0 195 3 204 6 14 6 16 81 16
755 0 457 -4 749 -9 749 -5 0 -13 9 -16 20 -6 19 -15 20 -166 20 -126 0 -164
-3 -175 -14 -12 -12 -14 -89 -14 -470 0 -401 -2 -455 -15 -450 -8 4 -15 14
-15 24 0 10 -7 20 -15 24 -8 3 -15 12 -15 21 0 8 -4 15 -9 15 -5 0 -12 11 -15
25 -4 14 -10 25 -15 25 -5 0 -12 14 -16 30 -4 17 -11 30 -16 30 -5 0 -11 11
-15 25 -3 14 -10 25 -15 25 -5 0 -9 7 -9 15 0 8 -4 15 -10 15 -5 0 -12 11 -16
25 -3 14 -10 25 -15 25 -5 0 -9 7 -9 15 0 9 -7 18 -15 21 -8 3 -17 21 -21 40
-4 20 -13 36 -24 39 -10 3 -22 19 -25 35 -4 17 -11 30 -16 30 -5 0 -11 11 -15
25 -3 14 -10 25 -15 25 -5 0 -9 6 -9 14 0 8 -6 21 -14 28 -7 8 -17 25 -21 38
-4 14 -16 32 -26 41 -10 8 -21 27 -24 41 -4 15 -13 29 -21 32 -8 3 -14 15 -14
26 0 11 -4 20 -10 20 -5 0 -10 7 -10 15 0 9 -7 18 -15 21 -8 4 -15 12 -15 20
0 8 -4 14 -9 14 -5 0 -12 11 -15 25 -4 14 -13 25 -21 25 -8 0 -15 5 -15 10 0
6 -66 10 -177 10 -141 -1 -181 -4 -190 -15z"/>
<path d="M10813 2235 c-10 -11 -13 -180 -13 -775 l0 -760 555 0 555 0 0 149
c0 82 -3 156 -6 165 -5 14 -47 16 -360 16 l-354 0 0 145 0 145 305 0 305 0 -2
163 -3 162 -302 3 -303 2 0 125 0 125 345 0 345 0 0 159 c0 88 -3 166 -6 175
-6 14 -61 16 -528 16 -437 -1 -523 -3 -533 -15z"/>
<path d="M12715 2037 c-56 -22 -84 -49 -111 -103 -23 -47 -27 -72 -32 -169
l-5 -115 -53 0 -54 0 0 -50 0 -50 55 0 55 0 0 -355 0 -355 65 0 65 0 2 353 3
352 88 3 87 3 0 49 0 49 -87 3 -88 3 1 95 c2 120 19 165 70 186 29 12 46 13
87 4 27 -6 51 -9 52 -8 7 12 25 91 21 95 -22 22 -172 29 -221 10z"/>
<path d="M18780 1493 c0 -324 4 -552 10 -574 20 -70 88 -108 171 -94 39 7 40
8 34 38 -11 57 -16 67 -31 67 -8 0 -23 9 -34 20 -19 19 -20 33 -20 550 l0 530
-65 0 -65 0 0 -537z"/>
<path d="M15090 1390 l0 -552 203 4 c167 4 213 9 264 25 156 51 247 148 297
313 24 77 32 251 16 347 -25 155 -98 276 -207 340 -92 54 -152 65 -370 71
l-203 5 0 -553z m385 425 c172 -45 254 -165 263 -385 5 -130 -6 -197 -44 -280
-63 -138 -181 -200 -379 -200 l-85 0 0 440 0 440 93 0 c52 0 119 -7 152 -15z"/>
<path d="M13283 1656 c-23 -7 -57 -23 -76 -35 -50 -31 -125 -115 -146 -164
-80 -186 -40 -424 90 -541 69 -62 143 -89 244 -89 107 0 178 27 249 96 67 66
103 140 118 245 30 205 -54 393 -210 469 -45 22 -72 28 -141 30 -53 2 -102 -2
-128 -11z m207 -118 c96 -49 144 -157 138 -312 -3 -83 -7 -101 -38 -162 -47
-91 -104 -129 -195 -129 -91 0 -148 38 -195 129 -30 59 -35 78 -38 160 -3 67
0 109 12 149 33 114 120 187 221 187 33 0 67 -8 95 -22z"/>
<path d="M14325 1656 c-34 -15 -87 -63 -126 -116 l-26 -35 -8 73 -7 72 -54 0
-54 0 0 -405 0 -405 65 0 65 0 0 255 c0 276 2 288 57 368 15 21 46 50 70 64
37 21 53 25 103 21 l59 -4 11 53 c6 29 9 57 5 63 -9 14 -124 12 -160 -4z"/>
<path d="M16380 1661 c-126 -39 -232 -166 -260 -311 -72 -379 239 -639 576
-481 35 16 64 33 64 36 0 14 -42 86 -48 83 -144 -76 -270 -77 -367 -3 -40 31
-91 128 -101 193 l-7 42 275 0 275 0 6 36 c4 20 2 71 -3 113 -18 141 -93 250
-198 285 -47 17 -168 20 -212 7z m152 -101 c79 -22 133 -95 144 -194 l7 -56
-223 0 -222 0 7 38 c21 117 125 220 225 222 14 0 42 -5 62 -10z"/>
<path d="M18100 1661 c-126 -39 -232 -166 -260 -311 -72 -379 239 -639 576
-481 35 16 64 33 64 36 0 14 -42 86 -48 83 -144 -76 -270 -77 -367 -3 -40 31
-91 128 -101 193 l-7 42 275 0 275 0 6 36 c4 20 2 71 -3 113 -18 141 -93 250
-198 285 -47 17 -168 20 -212 7z m152 -101 c79 -22 133 -95 144 -194 l7 -56
-223 0 -222 0 7 38 c21 117 125 220 225 222 14 0 42 -5 62 -10z"/>
<path d="M19473 1656 c-23 -7 -57 -23 -76 -35 -50 -31 -125 -115 -146 -164
-80 -186 -40 -424 90 -541 69 -62 143 -89 244 -89 107 0 178 27 249 96 67 66
103 140 118 245 30 205 -54 393 -210 469 -45 22 -72 28 -141 30 -53 2 -102 -2
-128 -11z m207 -118 c96 -49 144 -157 138 -312 -3 -83 -7 -101 -38 -162 -47
-91 -104 -129 -195 -129 -91 0 -148 38 -195 129 -30 59 -35 78 -38 160 -3 67
0 109 12 149 33 114 120 187 221 187 33 0 67 -8 95 -22z"/>
<path d="M20533 1659 c-17 -5 -62 -29 -99 -54 -37 -25 -68 -45 -69 -45 -2 0
-6 20 -9 45 l-7 45 -55 0 -54 0 0 -575 0 -575 65 0 65 0 0 205 c0 113 4 205 9
205 5 0 14 -6 20 -14 6 -7 39 -26 74 -42 50 -23 75 -29 132 -28 211 1 359 207
341 474 -13 193 -86 314 -215 358 -40 14 -152 14 -198 1z m154 -119 c84 -38
131 -163 120 -319 -11 -159 -82 -259 -204 -286 -42 -9 -124 15 -185 54 l-48
31 0 214 0 215 53 40 c29 22 68 47 87 55 48 21 127 19 177 -4z"/>
<path d="M21430 1661 c-126 -39 -232 -166 -260 -311 -72 -379 239 -639 576
-481 35 16 64 33 64 36 0 14 -42 86 -48 83 -144 -76 -270 -77 -367 -3 -40 31
-91 128 -101 193 l-7 42 275 0 275 0 6 36 c4 20 2 71 -3 113 -18 141 -93 250
-198 285 -47 17 -168 20 -212 7z m152 -101 c79 -22 133 -95 144 -194 l7 -56
-223 0 -222 0 7 38 c21 117 125 220 225 222 14 0 42 -5 62 -10z"/>
<path d="M22385 1656 c-34 -15 -87 -63 -126 -116 l-26 -35 -8 73 -7 72 -54 0
-54 0 0 -405 0 -405 65 0 65 0 0 255 c0 276 2 288 57 368 15 21 46 50 70 64
37 21 53 25 103 21 l59 -4 11 53 c6 29 9 57 5 63 -9 14 -124 12 -160 -4z"/>
<path d="M17099 1245 l146 -406 80 3 79 3 142 400 141 400 -60 3 c-33 2 -63
-1 -68 -5 -4 -4 -58 -162 -119 -351 -62 -189 -116 -340 -120 -335 -4 4 -30 82
-58 173 -28 91 -78 244 -110 340 l-59 175 -70 3 -70 3 146 -406z"/>
</g>
</svg>
